<svg xmlns="http://www.w3.org/2000/svg" width="1540" height="323"><g fill="#bf1920"><path d="m357.8 235 5 18.9c-1.7 2.1-3.4 4.2-5.3 6.2-33.4 37-92.2 61.6-159.1 61.6S72.7 297.1 39.3 260.1C14.7 232.8 0 198.3 0 160.9 0 123.4 14.7 89 39.3 61.7 72.6 24.7 132.3 0 200.4 0c47.7 0 90.8 11.5 121.8 30 24.4 14.6 44.5 33.9 58.6 56.3l-129.4 74.6 68.7-109.8c-19.9-12.5-43.4-19.7-68.7-19.7-71.6 0-129.6 57.9-129.6 129.5 0 71.5 58 129.5 129.6 129.5 44 0 82.9-21.9 106.4-55.4"/><path fill-rule="evenodd" d="m586 313.9-11.9-44.5c-22.2 30.5-58.1 50.4-98.7 50.4-56.5 0-102.1-37.8-102.1-84.4s45.6-84.3 102.1-84.3c28.4 0 54.3 10.4 74.2 27.5L529.1 102H408.9l116.9-42.4c8.2-3 17-4.7 26.2-4.7 35.5 0 65.3 24.1 74 56.7l54.3 202.3zm-24.2-78.5c0-26-21.1-47.1-47.1-47.1-26.1 0-47.2 21.1-47.2 47.1s21.1 47.1 47.2 47.1c26 0 47.1-21.1 47.1-47.1M948.7 102v211.9h-94.2V125.6c0-13-10.6-23.6-23.6-23.6-13.1 0-23.6 10.6-23.6 23.6v188.3H713V102h-64.4l91.6-42.6c6.1-2.9 12.9-4.4 19.9-4.4 23.5 0 42.9 17 46.6 39.3l75-34.9c6-2.9 12.8-4.4 19.9-4.4 26 0 47.1 21 47.1 47m172.9 219.7c-73.9 0-133.6-59.6-133.6-133.4 0-73.7 59.7-133.3 133.6-133.3 73.8 0 133.5 59.6 133.5 133.3 0 73.8-59.7 133.4-133.5 133.4m5.5-226.3c-4.2-15.6-20.3-25-36-20.7-15.7 4.2-25.1 20.3-20.9 36l45.8 170.5c4.3 15.7 20.4 25 36.1 20.9 15.7-4.3 25-20.4 20.8-36.1zM1540 102v211.9h-94.4V125.5c0-13-10.5-23.5-23.5-23.5-13.1 0-23.6 10.5-23.6 23.5v188.4h-94.3V102h-64.4l91.6-42.7c6.1-2.8 12.9-4.4 20-4.4 23.4 0 42.8 17 46.5 39.4l74.9-35c6.1-2.8 12.9-4.4 20-4.4 26 0 47.2 21.1 47.2 47.1"/></g></svg>