<svg xmlns="http://www.w3.org/2000/svg" width="1552" height="1552"><g fill="#0096d6"><path d="M776 1551.5c-7.7 0-15.4-.1-23-.3l158.4-435.6h218.1c38.3 0 80.4-29.5 93.5-65.5l171.8-472.2c28.2-77.3-16-140.6-98.4-140.6H993.9l-254 697.7h-.1l-143.9 395.5C254.6 1449.2.5 1142.2.5 776c0-355.8 239.6-655.5 566.1-746.9L418.1 437.3h-.1l-246.8 678.3h164.4l209.9-576.3h123.6l-210 576.3h164.3L819 577.9c28.2-77.3-16.2-140.6-98.3-140.6H582.6l158.6-436Q758.5.5 776 .5c428.3 0 775.5 347.2 775.5 775.5s-347.2 775.5-775.5 775.5"/><path d="M1072.3 1013.3H948.8l172.9-474.5h123.5z"/></g></svg>