<svg xmlns="http://www.w3.org/2000/svg" width="1581" height="546"><g fill="#d61b3e"><path d="M596.8 138.2c0 54 39.9 93.5 106.6 93.5q10.6.2 21.1-.7 10.6-1 20.9-3.2 10.4-2.2 20.4-5.5 10.1-3.3 19.7-7.7l25 33.9c-34.5 18.2-67.7 27.8-118.9 27.8-106.4 0-184.7-51.2-184.7-138.1C507.1 51.3 585.3 0 691.7 0c51 0 80.4 7.4 116.3 22.8l-25.6 39.1c-27-14.4-50.8-17.4-79-17.4-66.7 0-106.6 39.7-106.6 93.5"/><path fill-rule="evenodd" d="M1180.1 138.2c0 87-74.3 138.2-177.3 138.2s-177.3-51.3-177.3-138.2S899.8 0 1002.8 0s177.3 51.2 177.3 138.2m-89.4-.1c0-52.6-31.3-95.2-87.9-95.2s-87.9 42.5-87.9 95.2c0 52.8 31.2 95.3 87.9 95.3 56.6 0 87.9-42.6 87.9-95.3"/><path d="M1447.9 158.2v111.1h85.1V6.9h-85.1V107h-130.1V6.9h-85v262.4h85V158.2zM366.1 7h89.7v262.4h-89.7zM109 127.1v25q16.3 12.8 31.8 26.6 15.5 13.7 30.1 28.4t28.3 30.3 26.4 31.9h100.3c-34.9-41-88.4-89.6-127.9-114.2 46.4-1.8 97.9-20.6 97.9-73.7C295.9 13.3 223.1.8 149.4.8 89.2.8 33.7 3.6.4 6.3v263h83.8V45.9q8.1-.9 16.3-1.6t16.4-1.2q8.2-.4 16.4-.6t16.4-.1c43.3 0 64.9 14.3 64.9 39.1 0 21.2-9 46.6-105.7 45.6"/></g><g fill="#6a6c6c"><path d="M7.2 348h21.6v20.8H7.2zm0 42.8h21.6v106.9H7.2zM188.9 497.8v-68.7c0-13-4.1-23.7-19.1-23.7-17.6 0-23.7 17.7-23.7 34.2v58.2h-21.3v-68.7c0-13.1-4.3-24-19.2-24-17.6 0-24.1 17.9-24.1 34.5v58.2H59.9v-82.3q0-3.1-.1-6.2 0-3.1-.1-6.1l-.4-6.2q-.2-3.1-.5-6.1h20.1l.7 18.4c1.4-3.1 3.3-6 5.5-8.6 2.3-2.6 5-4.8 7.9-6.6s6.1-3.2 9.4-4c3.4-.9 6.8-1.3 10.3-1.2 3.4-.2 6.8.2 10.1 1.1 3.3 1 6.4 2.4 9.2 4.4 2.8 1.9 5.3 4.3 7.3 7.1 2 2.7 3.6 5.8 4.6 9 1.4-3.1 3.2-6.1 5.4-8.8 2.2-2.6 4.8-5 7.7-6.9s6.1-3.3 9.4-4.3 6.8-1.6 10.3-1.6c23.3 0 33.8 15.9 33.8 37.9v71z"/><g fill-rule="evenodd"><path d="m1155.4 497.8-.6-17c-15.3 28.6-69.2 25.5-69.2-11.4 0-27.8 26.7-39.2 68.5-37.2 0 0 2.3-20.1-11.5-26.2-8.9-4-28.1-3.4-44.3 6.1l-1.3-16.2c24.8-10.3 78.1-16.7 78.1 32.9v45.4q0 3 .1 5.9l.2 6q.2 3 .4 5.9l.6 6h-20.9zm-21-13.6c15.7-3.7 20.3-19.5 19.7-38.9 0 0-48.7-3.9-47.3 23 .7 15.8 16.2 18.7 27.6 15.9M301.7 497.8l-.6-17c-15.3 28.6-69.2 25.5-69.2-11.4 0-27.8 26.6-39.2 68.5-37.2 0 0 2.3-20.1-11.5-26.2-9-4-28.2-3.4-44.4 6.1l-1.3-16.2c24.9-10.3 78.2-16.7 78.2 32.9v45.4q0 3 .1 5.9 0 3 .2 6t.4 5.9l.6 6h-21zm-21-13.6c15.8-3.7 20.4-19.5 19.7-38.9 0 0-48.6-3.9-47.3 23 .8 15.8 16.2 18.7 27.6 15.9M1326.1 540.6l1.3-18.2q3.7 1.9 7.6 3.3 3.8 1.5 7.9 2.5 4 1 8.1 1.4 4.1.5 8.3.5c37-.6 34.9-31.3 34.9-50.9-1.8 2.8-3.9 5.4-6.3 7.6-2.4 2.3-5.1 4.3-7.9 5.9-2.9 1.6-6 2.9-9.2 3.7-3.2.9-6.5 1.4-9.8 1.4-31.2 0-43.2-27-43.2-54 0-28.4 12.2-55.2 43.9-55.2 3.4-.2 6.9.2 10.2 1 3.4.8 6.6 2.2 9.6 3.9 2.9 1.8 5.6 4 8 6.5 2.3 2.5 4.3 5.4 5.8 8.5v-17.7h20.5v100.8c0 59.4-53 60-89.4 48.6m41.2-135.1c-22 0-27 21-27 39 0 16.7 5.4 37.2 27 37.2 20.8 0 27.4-20.9 27.4-37.2 0-17.1-6.4-39-27-39zM352.7 540.6l1.3-18.2q3.7 1.9 7.6 3.3 3.9 1.5 7.9 2.5t8.1 1.4q4.2.5 8.3.5c37-.6 34.9-31.3 34.9-50.9-1.7 2.8-3.9 5.4-6.3 7.6-2.4 2.3-5 4.3-7.9 5.9s-6 2.9-9.2 3.7c-3.2.9-6.5 1.4-9.8 1.4-31.2 0-43.2-27-43.2-54 0-28.4 12.2-55.2 43.9-55.2 3.4-.1 6.9.2 10.2 1 3.4.8 6.6 2.2 9.6 3.9 3 1.8 5.7 4 8 6.5s4.3 5.4 5.8 8.5v-17.7h20.6v100.8c0 59.4-53.1 60-89.5 48.6m41.2-135.1c-22 0-27 21-27 39 0 16.7 5.4 37.2 27 37.2 20.8 0 27.4-20.9 27.4-37.2 0-17.1-6.4-39-27-39z"/></g><path d="M473.9 348h21.6v20.8h-21.6zm0 42.8h21.6v106.9h-21.6z"/><path fill-rule="evenodd" d="M1460.6 449.9c1.2 37.4 34.5 42.1 64.2 27.8l1.3 16.7c-43.3 13.9-87.6 5.7-87.6-50.5 0-29.3 18.7-55.2 48.4-55.2 50.4 0 44.8 61.2 44.8 61.2zm26.4-46.4h.30000000000000004zm-26.8 33.1h50.8c0-15.1-5.8-33-23.9-33.1-18.1.1-26.9 19.5-26.9 33.1M662.8 449.9c1.2 37.4 34.5 42.1 64.2 27.8l1.3 16.7c-43.2 13.9-87.6 5.7-87.6-50.5 0-29.3 18.7-55.2 48.4-55.2 50.5 0 44.8 61.2 44.8 61.2zm-.1999999999999993-13.299999999999997h50.7c0-15.1-5.7-33.1-23.9-33.1s-26.8 19.5-26.8 33.1"/><path d="M760.3 475.8h22.9v22h-22.9zM858.8 443.9c0-48.6 46.9-64.3 87.8-50.7l-1.3 17.3c-27-12.4-63.4-4.7-63.4 33.6 0 37.2 35 47.8 63.7 35.1l1 16.7c-33.9 11.6-87.9 2.7-87.8-52M1027.3 388.9c-3.4-.1-6.8.2-10.2 1-3.3.9-6.5 2.2-9.4 3.9-2.9 1.8-5.6 4-7.9 6.5-2.3 2.6-4.2 5.4-5.7 8.5V348h-21.6v149.8h21.6v-56c0-16.7 6.5-36.4 26.1-36.4 18.4 0 21.2 14.1 21.2 29.3v63.1h21.7v-67.6c0-24.4-10.1-41.5-35.8-41.5M1273 497.8v-63.1c0-15-2.8-29.3-21.2-29.3-19.9 0-26.1 18.2-26.1 35v57.4h-21.6v-82.3q0-3.1-.1-6.2 0-3.1-.2-6.1-.1-3.1-.3-6.2t-.5-6.1h20.1l.6 18.4c1.6-3.2 3.7-6.1 6.1-8.7s5.2-4.8 8.3-6.6 6.4-3.2 9.8-4.1 7-1.2 10.6-1.1c26.5 0 35.9 16.9 35.9 41.5v67.5h-21.6zM596.2 497.8v-63.1c0-15-2.7-29.3-21.2-29.3-19.9 0-26.1 18.2-26.1 35v57.4h-21.6v-88.5q-.1-3.1-.2-6.1l-.4-6.2q-.2-3.1-.5-6.1h20.3l.6 18.4c1.6-3.2 3.7-6.1 6.1-8.7s5.2-4.8 8.3-6.6c3-1.8 6.3-3.2 9.8-4.1 3.4-.9 7-1.2 10.6-1.1 26.5 0 35.9 16.9 35.9 41.5v67.5zM1558 475.8h22.9v22H1558z"/></g></svg>