<svg xmlns="http://www.w3.org/2000/svg" width="1552" height="239"><path d="M1551.9 105.5v59.6c-.1 4-.2 7.2-.8 14.6-3.8 40.5-38.6 54.9-78.1 54.9-39.2 0-74.3-14.4-77.9-54.9-.8-7.4-.9-10.6-.9-14.6V71.7c0-4.1.7-10.9 1.1-14.7 4.9-41.6 38.5-54.9 77.9-54.9 39.3 0 73.6 13.2 77.8 54.9.7 7.1.4 14.7.4 14.7v7.2h-55.8V66.6s-.1-5.3-.7-8.6c-1-4.8-5.2-16-22.2-16-16.2 0-21 10.6-22.1 16-.7 3-1 7-1 10.5v101.6c0 2.8.2 5.9.6 8.4 1 6 6.6 16.2 22.6 16.2 16.2 0 21.8-10.2 22.8-16.2.4-2.5.6-5.6.5-8.4v-32.2h-22.7v-32.4zm-463.7 61.8c.2 4.1-.2 12.5-.5 14.7-3.9 41.5-36.6 55-77.5 55-40.7 0-73.4-13.5-77.3-55-.2-2.2-.5-10.6-.5-14.7V8.1h56.1v164.3c0 2.9 0 6.1.6 8.5 1.1 5.5 5.9 16.1 21.1 16.1 15.5 0 20.2-10.6 21.4-16.1.5-2.4.5-5.6.5-8.5V8.1h56.1zM663 8l5 222.2h-55.6l-1.5-205.7-38.2 205.7h-56.2L478.3 24.5l-1.5 205.7h-55.4L426.2 8h90.5l27.9 173.7L572.6 8zM336.1 8l41 222.2h-59.5L287.3 24.5l-30.9 205.7h-60L237.5 8zm945.1 0h54.8v219.9h-78.9L1201 43.3l3.1 184.6h-54.4V8h82.3l52.2 178.9zm-402 143.4c1 4.7 2.9 17.1.4 36-5.3 36.8-38 50.4-77.6 50.4-41.4 0-79.8-14.9-79.8-64v-16.9h58.9v21.3c0 12 8.3 19.9 22.1 19.9 14.7 0 19.7-7.4 21.4-14.8 1-4 1.6-10.9-.4-16.3-11.4-28.4-89.4-41.4-98.9-86.3-2.5-11.1-2.1-19.8-.6-29.6 5.9-36 37.8-48.9 76.9-48.9 31 0 73.8 7.5 73.8 55.4V73h-54.7V59.5c0-12-7.5-20-20.3-20-13.7 0-18.5 7.7-20.1 14.8-.5 2.5-.8 7.1.2 11.5 6.3 25.7 89.5 39.6 98.7 85.6m-720.4.3c.9 4.7 2.9 17.2.3 36.4-5.4 37.1-38.3 50.8-78.4 50.8C39 238.9 0 224 0 174.3v-17h59.6v21.4c0 12.1 8.3 20.2 22.2 20.2 14.8 0 19.8-7.5 21.7-15 1-4.2 1.7-11-.5-16.4-11.4-28.7-90.3-41.9-99.9-87.3C.8 69 1 60.2 2.7 50.3 8.5 14 40.7.9 80.2.9c31.3 0 74.8 7.7 74.8 56v15.6H99.7V58.8c0-12.1-7.6-20.2-20.6-20.2-14 0-18.8 7.9-20.3 15-.6 2.5-.9 7.2.2 11.7 6.3 26 90.5 39.8 99.8 86.4"/></svg>